<svg xmlns="http://www.w3.org/2000/svg" enable-background="new 0 0 512 512" viewBox="0 0 512 512"><path fill="#b3c3f3" d="M481.905,216.66v240.863c0,27.133-21.995,49.128-49.128,49.128l0,0c-27.133,0-49.128-21.995-49.128-49.128V201.77h83.366C475.238,201.77,481.905,208.436,481.905,216.66z"/><path fill="#b3c3f3" d="M418.395,407.172V20.219c0-8.224-6.667-14.89-14.89-14.89H95.334c-8.224,0-14.89,6.667-14.89,14.89v436.081"/><path fill="#b3c3f3" d="M432.779,506.662H79.223c-13.6,0-25.86-5.509-34.745-14.395c-8.885-8.884-14.394-21.194-14.394-34.745V54.976c0-8.239,6.7-14.89,14.89-14.89h323.773c8.239,0,14.89,6.651,14.89,14.89v402.546c0,13.551,5.509,25.86,14.443,34.745C406.919,501.152,419.228,506.662,432.779,506.662z"/><path fill="#6787e7" d="M344.401 90.455v97.814c0 5.891-4.775 10.667-10.667 10.667H229.788c-5.891 0-10.667-4.775-10.667-10.667V90.455c0-5.891 4.775-10.667 10.667-10.667h103.946C339.626 79.789 344.401 84.564 344.401 90.455zM80.455 357.762h103.947c5.891 0 10.667 4.775 10.667 10.667v87.84c0 5.891-4.775 10.667-10.667 10.667H80.455c-5.891 0-10.667-4.775-10.667-10.667v-87.84C69.788 362.537 74.564 357.762 80.455 357.762z"/><path fill="#4169e1" d="M403.514,0H95.355C84.178,0,75.087,9.069,75.087,20.211v14.542H44.975c-11.151,0-20.224,9.073-20.224,20.224v402.547c0,14.549,5.667,28.227,15.956,38.515s23.966,15.956,38.515,15.956h353.489c0.028,0,0.056,0.005,0.083,0.005c30.026,0,54.453-24.43,54.453-54.456V216.638c0-11.146-9.068-20.214-20.214-20.214h-43.307V20.211C423.728,9.067,414.66,0,403.514,0z M423.728,241.846h10.586c4.144,0,7.513,3.373,7.513,7.515v208.161c0,5.473-4.954,10.018-10.898,8.867c-4.104-0.797-7.2-4.851-7.2-9.433C423.728,377.772,423.728,323.123,423.728,241.846z M79.223,501.328c-11.7,0-22.701-4.557-30.974-12.831c-8.274-8.274-12.831-19.273-12.831-30.974V54.976c0-5.271,4.287-9.558,9.558-9.558c55.371,0,191.561,0,323.773,0c5.271,0,9.558,4.287,9.558,9.558v402.547c0,17.405,8.248,33.489,22.102,43.805L79.223,501.328L79.223,501.328z M467.035,207.091c5.263,0,9.547,4.284,9.547,9.547v240.906c0,24.143-19.638,43.784-43.778,43.788c-0.008,0-0.015-0.005-0.023-0.005c-0.107,0-0.211-0.015-0.318-0.015c-24.4-0.183-43.49-20.133-43.49-43.789V54.976c0-11.151-9.073-20.224-20.224-20.224H85.754V20.211c0-5.263,4.307-9.544,9.601-9.544h308.159c5.263,0,9.547,4.282,9.547,9.544c0,53.739,0,383.327,0,436.747c0,9.753,6.659,18.123,15.836,19.904v0.003c12.448,2.399,23.597-7.082,23.597-19.342V249.363c0-10.026-8.156-18.183-18.18-18.183h-10.586v-24.088L467.035,207.091L467.035,207.091z"/><path fill="#4169e1" d="M333.736 74.456H229.788c-8.823 0-16 7.177-16 16v97.812c0 8.823 7.177 16 16 16h103.948c8.823 0 16-7.177 16-16V90.456C349.736 81.633 342.559 74.456 333.736 74.456zM339.069 188.269c0 2.94-2.394 5.334-5.334 5.334H229.788c-2.94 0-5.334-2.394-5.334-5.334V90.456c0-2.94 2.394-5.334 5.334-5.334h103.948c2.94 0 5.334 2.394 5.334 5.334L339.069 188.269 339.069 188.269zM184.402 352.429H80.455c-8.823 0-16 7.177-16 16v87.839c0 8.823 7.177 16 16 16h103.948c8.823 0 16-7.177 16-16V368.43C200.403 359.606 193.226 352.429 184.402 352.429zM189.736 456.268c0 2.94-2.394 5.334-5.334 5.334H80.455c-2.94 0-5.334-2.394-5.334-5.334V368.43c0-2.94 2.394-5.334 5.334-5.334h103.948c2.94 0 5.334 2.394 5.334 5.334V456.268zM69.787 85.104H179.43c2.945 0 5.334-2.388 5.334-5.334 0-2.945-2.388-5.334-5.334-5.334H69.787c-2.945 0-5.334 2.388-5.334 5.334C64.455 82.717 66.842 85.104 69.787 85.104zM69.787 123.821H179.43c2.945 0 5.334-2.388 5.334-5.334 0-2.945-2.388-5.334-5.334-5.334H69.787c-2.945 0-5.334 2.388-5.334 5.334C64.455 121.432 66.842 123.821 69.787 123.821zM69.787 162.536H179.43c2.945 0 5.334-2.388 5.334-5.334s-2.388-5.334-5.334-5.334H69.787c-2.945 0-5.334 2.388-5.334 5.334S66.842 162.536 69.787 162.536zM69.787 201.255H179.43c2.945 0 5.334-2.388 5.334-5.334s-2.388-5.334-5.334-5.334H69.787c-2.945 0-5.334 2.388-5.334 5.334S66.842 201.255 69.787 201.255zM343.923 229.305H69.804c-2.945 0-5.334 2.388-5.334 5.334 0 2.945 2.388 5.334 5.334 5.334h274.119c2.945 0 5.334-2.388 5.334-5.334S346.868 229.305 343.923 229.305zM343.923 268.021H69.804c-2.945 0-5.334 2.388-5.334 5.334 0 2.945 2.388 5.334 5.334 5.334h274.119c2.945 0 5.334-2.388 5.334-5.334C349.257 270.409 346.868 268.021 343.923 268.021zM343.923 306.737H69.804c-2.945 0-5.334 2.388-5.334 5.334 0 2.945 2.388 5.334 5.334 5.334h274.119c2.945 0 5.334-2.388 5.334-5.334C349.257 309.125 346.868 306.737 343.923 306.737zM343.926 345.455H234.775c-2.945 0-5.334 2.388-5.334 5.334 0 2.945 2.388 5.334 5.334 5.334h109.151c2.945 0 5.334-2.388 5.334-5.334C349.259 347.844 346.871 345.455 343.926 345.455zM343.926 384.172H234.775c-2.945 0-5.334 2.388-5.334 5.334 0 2.945 2.388 5.334 5.334 5.334h109.151c2.945 0 5.334-2.388 5.334-5.334C349.259 386.56 346.871 384.172 343.926 384.172zM343.926 422.888H234.775c-2.945 0-5.334 2.388-5.334 5.334 0 2.945 2.388 5.334 5.334 5.334h109.151c2.945 0 5.334-2.388 5.334-5.334C349.259 425.276 346.871 422.888 343.926 422.888zM343.926 461.607H234.775c-2.945 0-5.334 2.388-5.334 5.334 0 2.945 2.388 5.334 5.334 5.334h109.151c2.945 0 5.334-2.388 5.334-5.334C349.259 463.995 346.871 461.607 343.926 461.607z"/></svg>